<svg width="512" height="512" viewBox="0 0 512 512" fill="none" xmlns="http://www.w3.org/2000/svg">
<path d="M430.749 295.253V358.103C430.749 373.054 420.032 385.856 405.313 388.485L307.281 405.995C305.478 406.318 303.65 406.481 301.818 406.482C287.149 406.482 274.141 395.985 271.472 381.041C268.475 364.262 279.648 348.229 296.427 345.232L369.023 332.265V295.254C369.023 278.209 382.841 264.391 399.886 264.391C416.931 264.391 430.749 278.209 430.749 295.253ZM314.435 53.847C315.111 53.8479 315.78 53.7153 316.404 53.4566C317.028 53.198 317.595 52.8185 318.072 52.34L338.485 31.927C338.963 31.4494 339.341 30.8824 339.6 30.2583C339.858 29.6343 339.991 28.9654 339.991 28.29C339.991 27.6145 339.858 26.9457 339.6 26.3217C339.341 25.6976 338.963 25.1306 338.485 24.653C338.007 24.1754 337.44 23.7965 336.816 23.538C336.192 23.2795 335.523 23.1465 334.848 23.1465C334.173 23.1465 333.504 23.2795 332.88 23.538C332.256 23.7965 331.689 24.1754 331.211 24.653L310.798 45.066C310.078 45.7852 309.588 46.7017 309.389 47.6997C309.191 48.6976 309.292 49.732 309.682 50.672C310.071 51.6121 310.731 52.4155 311.577 52.9807C312.423 53.5458 313.418 53.8473 314.435 53.847ZM335.52 107.924C335.514 108.6 335.641 109.27 335.894 109.896C336.147 110.522 336.521 111.093 336.995 111.575C337.468 112.056 338.032 112.44 338.654 112.704C339.276 112.968 339.943 113.107 340.619 113.113L361.033 113.291H361.079C362.426 113.271 363.712 112.723 364.659 111.765C365.607 110.807 366.141 109.516 366.147 108.169C366.153 106.821 365.63 105.525 364.69 104.559C363.751 103.594 362.47 103.035 361.123 103.003L340.709 102.825C340.033 102.819 339.363 102.946 338.737 103.199C338.111 103.452 337.54 103.826 337.058 104.3C336.577 104.773 336.193 105.337 335.929 105.959C335.665 106.581 335.526 107.248 335.52 107.924ZM330.127 71.361C330.668 72.6132 331.685 73.599 332.953 74.1016C334.222 74.6042 335.638 74.5824 336.89 74.041L357.304 65.218C357.924 64.9501 358.485 64.5627 358.956 64.0778C359.426 63.593 359.796 63.0203 360.045 62.3923C360.294 61.7644 360.417 61.0936 360.407 60.4182C360.396 59.7428 360.253 59.076 359.985 58.456C359.717 57.8359 359.33 57.2747 358.845 56.8043C358.36 56.334 357.787 55.9638 357.159 55.7148C356.531 55.4659 355.861 55.343 355.185 55.3534C354.51 55.3637 353.843 55.507 353.223 55.775L332.809 64.598C332.189 64.8659 331.627 65.2534 331.157 65.7383C330.687 66.2231 330.316 66.7959 330.067 67.424C329.818 68.052 329.695 68.7229 329.705 69.3984C329.716 70.074 329.859 70.7408 330.127 71.361ZM361.122 146.381L340.708 146.202C337.859 146.192 335.544 148.46 335.519 151.301C335.513 151.977 335.64 152.647 335.893 153.273C336.146 153.899 336.52 154.47 336.994 154.952C337.467 155.433 338.031 155.817 338.653 156.081C339.275 156.345 339.942 156.484 340.618 156.49L361.032 156.669H361.078C362.442 156.675 363.753 156.138 364.722 155.178C365.691 154.217 366.238 152.911 366.244 151.547C366.25 150.183 365.713 148.872 364.753 147.903C363.792 146.934 362.486 146.387 361.122 146.381ZM361.122 189.759L340.708 189.58C337.859 189.578 335.544 191.837 335.519 194.679C335.513 195.355 335.64 196.025 335.893 196.651C336.146 197.277 336.52 197.848 336.994 198.33C337.467 198.811 338.031 199.195 338.653 199.459C339.275 199.723 339.942 199.862 340.618 199.868L361.032 200.047H361.078C362.442 200.053 363.753 199.516 364.722 198.556C365.691 197.595 366.238 196.289 366.244 194.925C366.25 193.561 365.713 192.25 364.753 191.281C363.792 190.312 362.486 189.765 361.122 189.759ZM82.394 224.809H82.44L102.853 224.631C104.196 224.593 105.471 224.032 106.405 223.067C107.34 222.102 107.859 220.809 107.854 219.466C107.848 218.123 107.317 216.835 106.374 215.878C105.432 214.921 104.152 214.37 102.809 214.344H102.763L82.35 214.522C81.0072 214.56 79.7323 215.121 78.7979 216.086C77.8635 217.051 77.3436 218.344 77.3493 219.687C77.3551 221.03 77.886 222.318 78.8286 223.275C79.7713 224.232 81.0509 224.783 82.394 224.809ZM110.664 176.117L90.251 167.294C88.9987 166.753 87.5826 166.731 86.3144 167.234C85.0462 167.737 84.0297 168.723 83.4885 169.975C82.9473 171.228 82.9258 172.644 83.4287 173.912C83.9316 175.18 84.9177 176.197 86.17 176.738L106.583 185.561C107.203 185.829 107.87 185.972 108.545 185.982C109.221 185.993 109.892 185.87 110.52 185.621C111.148 185.372 111.72 185.002 112.205 184.531C112.69 184.061 113.078 183.5 113.346 182.88C113.613 182.259 113.757 181.593 113.767 180.917C113.777 180.242 113.654 179.571 113.405 178.943C113.156 178.315 112.786 177.742 112.316 177.257C111.845 176.772 111.284 176.385 110.664 176.117ZM160.743 136.172C159.778 135.208 158.47 134.666 157.106 134.666C155.742 134.666 154.434 135.208 153.469 136.172L133.056 156.587C132.092 157.552 131.55 158.86 131.55 160.224C131.55 161.588 132.092 162.896 133.057 163.861C134.021 164.825 135.329 165.367 136.693 165.367C138.057 165.367 139.366 164.825 140.33 163.86L160.743 143.446C161.221 142.968 161.6 142.401 161.858 141.777C162.117 141.153 162.25 140.484 162.25 139.809C162.25 139.134 162.117 138.465 161.858 137.841C161.6 137.217 161.221 136.65 160.743 136.172ZM183.379 214.522L162.966 214.344C162.29 214.337 161.62 214.463 160.993 214.716C160.366 214.968 159.795 215.342 159.313 215.816C158.831 216.29 158.447 216.854 158.183 217.476C157.92 218.099 157.782 218.767 157.777 219.443C157.765 220.807 158.296 222.12 159.252 223.093C160.208 224.066 161.512 224.619 162.876 224.631L183.289 224.809H183.335C184.678 224.783 185.958 224.232 186.9 223.275C187.843 222.318 188.374 221.03 188.38 219.687C188.385 218.344 187.866 217.051 186.931 216.086C185.997 215.121 184.722 214.56 183.379 214.522ZM179.56 176.738C180.786 176.18 181.744 175.163 182.228 173.906C182.713 172.648 182.685 171.252 182.15 170.015C181.616 168.778 180.618 167.801 179.37 167.292C178.123 166.783 176.726 166.784 175.479 167.294L155.066 176.117C153.837 176.674 152.876 177.691 152.39 178.949C151.904 180.207 151.931 181.606 152.467 182.845C153.002 184.083 154.002 185.061 155.252 185.57C156.501 186.078 157.901 186.075 159.148 185.561L179.56 176.738ZM107.952 262.822C107.94 261.466 107.393 260.169 106.43 259.214C105.467 258.259 104.165 257.723 102.809 257.723H102.763L82.35 257.9C81.0072 257.938 79.7323 258.499 78.7979 259.464C77.8635 260.429 77.3436 261.722 77.3493 263.065C77.3551 264.408 77.886 265.696 78.8286 266.653C79.7713 267.61 81.0509 268.161 82.394 268.187H82.44L102.853 268.009C103.528 268.003 104.196 267.865 104.818 267.601C105.44 267.337 106.003 266.953 106.477 266.472C106.95 265.99 107.324 265.42 107.577 264.794C107.831 264.167 107.958 263.497 107.952 262.822ZM101.871 301.186L87.273 303.89C86.6088 304.013 85.9753 304.266 85.4087 304.634C84.8421 305.001 84.3536 305.477 83.9709 306.034C83.5882 306.591 83.319 307.217 83.1785 307.878C83.0379 308.539 83.029 309.221 83.152 309.885C83.2751 310.549 83.5277 311.183 83.8956 311.749C84.2635 312.316 84.7393 312.804 85.296 313.187C85.8527 313.57 86.4793 313.839 87.1401 313.98C87.8008 314.12 88.4828 314.129 89.147 314.006L103.745 311.302C104.409 311.179 105.043 310.926 105.609 310.558C106.176 310.191 106.664 309.715 107.047 309.158C107.43 308.601 107.699 307.975 107.84 307.314C107.98 306.653 107.989 305.971 107.866 305.307C107.743 304.643 107.49 304.009 107.122 303.443C106.755 302.876 106.279 302.388 105.722 302.005C105.165 301.622 104.539 301.353 103.878 301.212C103.217 301.072 102.535 301.063 101.871 301.186ZM361.122 233.137L340.708 232.958H340.662C339.31 232.97 338.016 233.514 337.062 234.473C336.108 235.432 335.57 236.727 335.564 238.08C335.559 239.432 336.086 240.733 337.031 241.699C337.977 242.666 339.266 243.221 340.618 243.245L361.032 243.424H361.078C362.43 243.412 363.724 242.868 364.678 241.909C365.632 240.95 366.17 239.655 366.176 238.302C366.181 236.95 365.654 235.649 364.709 234.683C363.763 233.716 362.474 233.161 361.122 233.137ZM340.708 276.338C337.859 276.35 335.544 278.596 335.519 281.437C335.507 282.801 336.038 284.114 336.994 285.087C337.95 286.06 339.254 286.613 340.618 286.625L361.032 286.803H361.078C362.421 286.777 363.701 286.226 364.643 285.269C365.586 284.312 366.117 283.024 366.123 281.681C366.128 280.338 365.609 279.045 364.674 278.08C363.74 277.115 362.465 276.554 361.122 276.516L340.708 276.338ZM216.2 102.825H216.154L195.741 103.003C194.394 103.035 193.113 103.594 192.174 104.559C191.234 105.525 190.711 106.821 190.717 108.169C190.723 109.516 191.257 110.807 192.205 111.765C193.152 112.723 194.438 113.271 195.785 113.291H195.831L216.244 113.113C217.591 113.081 218.872 112.522 219.811 111.557C220.751 110.591 221.274 109.295 221.268 107.947C221.262 106.6 220.728 105.309 219.78 104.351C218.833 103.393 217.547 102.845 216.2 102.825ZM224.055 64.599L203.642 55.776C203.022 55.5075 202.355 55.364 201.68 55.3534C201.004 55.3429 200.333 55.4657 199.705 55.7147C199.077 55.9637 198.504 56.334 198.02 56.8046C197.535 57.2751 197.148 57.8367 196.88 58.457C196.612 59.077 196.469 59.7438 196.458 60.4192C196.448 61.0946 196.571 61.7654 196.82 62.3933C197.069 63.0213 197.439 63.594 197.909 64.0788C198.38 64.5637 198.941 64.9511 199.561 65.219L219.974 74.042C220.596 74.3204 221.267 74.4725 221.947 74.4896C222.628 74.5067 223.306 74.3883 223.941 74.1414C224.576 73.8945 225.155 73.5239 225.646 73.0512C226.136 72.5786 226.528 72.0132 226.798 71.3879C227.068 70.7626 227.212 70.0899 227.22 69.4087C227.228 68.7276 227.101 68.0516 226.846 67.42C226.59 66.7885 226.212 66.2139 225.733 65.7296C225.254 65.2453 224.684 64.861 224.055 64.599ZM216.2 146.203H216.154L195.741 146.382C194.398 146.42 193.123 146.981 192.189 147.946C191.254 148.911 190.735 150.204 190.74 151.547C190.746 152.89 191.277 154.178 192.22 155.135C193.162 156.092 194.442 156.643 195.785 156.669H195.831L216.244 156.49C217.587 156.452 218.862 155.891 219.796 154.926C220.731 153.961 221.25 152.668 221.245 151.325C221.239 149.982 220.708 148.694 219.765 147.737C218.823 146.78 217.543 146.229 216.2 146.203ZM216.154 189.581L195.741 189.76C194.398 189.798 193.123 190.359 192.189 191.324C191.254 192.289 190.735 193.582 190.74 194.925C190.746 196.268 191.277 197.556 192.22 198.513C193.162 199.47 194.442 200.021 195.785 200.047H195.831L216.244 199.868C217.608 199.856 218.912 199.302 219.868 198.329C220.824 197.356 221.355 196.043 221.343 194.679C221.339 194.003 221.202 193.334 220.939 192.711C220.676 192.089 220.292 191.524 219.81 191.05C219.327 190.576 218.756 190.202 218.129 189.95C217.501 189.698 216.83 189.573 216.154 189.581ZM216.2 232.959H216.154L195.741 233.138C194.398 233.176 193.123 233.737 192.189 234.702C191.254 235.667 190.735 236.96 190.74 238.303C190.746 239.646 191.277 240.934 192.22 241.891C193.162 242.848 194.442 243.399 195.785 243.425H195.831L216.244 243.246C217.587 243.208 218.862 242.647 219.796 241.682C220.731 240.717 221.25 239.424 221.245 238.081C221.239 236.738 220.708 235.45 219.765 234.493C218.823 233.536 217.543 232.985 216.2 232.959Z" fill="#2BA52E"/>
<path d="M277.852 21.848C238.078 21.848 205.839 54.087 205.839 93.861V266.15L175.28 257.915V185.412C175.28 162.685 156.856 144.262 134.13 144.262C111.403 144.262 92.98 162.685 92.98 185.412V289.444C92.98 308.047 105.461 324.337 123.423 329.177L205.839 351.387V457.497C205.839 497.271 238.078 501.859 277.852 501.859C317.626 501.859 349.865 497.271 349.865 457.497V93.861C349.866 54.087 317.626 21.848 277.852 21.848Z" fill="#5DC15D"/>
<path d="M195.785 286.803C194.433 286.791 193.139 286.247 192.185 285.288C191.231 284.329 190.693 283.034 190.687 281.681C190.682 280.329 191.209 279.028 192.154 278.062C193.1 277.095 194.389 276.54 195.741 276.516L216.154 276.338H216.2C217.552 276.35 218.846 276.894 219.8 277.853C220.754 278.812 221.292 280.107 221.298 281.46C221.303 282.812 220.776 284.113 219.831 285.079C218.885 286.046 217.596 286.601 216.244 286.625L195.831 286.803H195.785ZM282.999 127.226V11.144C282.999 9.77973 282.457 8.47133 281.492 7.50664C280.528 6.54196 279.219 6 277.855 6C276.491 6 275.182 6.54196 274.218 7.50664C273.253 8.47133 272.711 9.77973 272.711 11.144V127.226C272.711 128.59 273.253 129.899 274.218 130.863C275.182 131.828 276.491 132.37 277.855 132.37C279.219 132.37 280.528 131.828 281.492 130.863C282.457 129.899 282.999 128.59 282.999 127.226ZM317.898 93.861V27.132C317.898 25.7677 317.356 24.4593 316.391 23.4946C315.427 22.53 314.118 21.988 312.754 21.988C311.39 21.988 310.081 22.53 309.117 23.4946C308.152 24.4593 307.61 25.7677 307.61 27.132V93.861C307.61 95.2253 308.152 96.5337 309.117 97.4984C310.081 98.463 311.39 99.005 312.754 99.005C314.118 99.005 315.427 98.463 316.391 97.4984C317.356 96.5337 317.898 95.2253 317.898 93.861ZM328.185 193.956V127.226C328.185 125.862 327.643 124.553 326.678 123.589C325.714 122.624 324.405 122.082 323.041 122.082C321.677 122.082 320.368 122.624 319.404 123.589C318.439 124.553 317.897 125.862 317.897 127.226V193.956C317.897 195.32 318.439 196.629 319.404 197.593C320.368 198.558 321.677 199.1 323.041 199.1C324.405 199.1 325.714 198.558 326.678 197.593C327.643 196.629 328.185 195.32 328.185 193.956ZM233.025 209.806V143.077C233.025 141.713 232.483 140.404 231.518 139.44C230.554 138.475 229.245 137.933 227.881 137.933C226.517 137.933 225.208 138.475 224.244 139.44C223.279 140.404 222.737 141.713 222.737 143.077V209.806C222.737 211.17 223.279 212.479 224.244 213.443C225.208 214.408 226.517 214.95 227.881 214.95C229.245 214.95 230.554 214.408 231.518 213.443C232.483 212.479 233.025 211.17 233.025 209.806ZM269.032 278.435V157.529C269.032 156.165 268.49 154.856 267.525 153.892C266.561 152.927 265.252 152.385 263.888 152.385C262.524 152.385 261.215 152.927 260.251 153.892C259.286 154.856 258.744 156.165 258.744 157.529V278.435C258.744 279.799 259.286 281.108 260.251 282.072C261.215 283.037 262.524 283.579 263.888 283.579C265.252 283.579 266.561 283.037 267.525 282.072C268.49 281.108 269.032 279.799 269.032 278.435ZM306.998 308.948V242.218C306.998 240.854 306.456 239.545 305.491 238.581C304.527 237.616 303.218 237.074 301.854 237.074C300.49 237.074 299.181 237.616 298.217 238.581C297.252 239.545 296.71 240.854 296.71 242.218V308.948C296.71 310.312 297.252 311.621 298.217 312.585C299.181 313.55 300.49 314.092 301.854 314.092C303.218 314.092 304.527 313.55 305.491 312.585C306.456 311.621 306.998 310.312 306.998 308.948ZM237.365 371.896V305.166C237.365 303.802 236.823 302.493 235.858 301.529C234.894 300.564 233.585 300.022 232.221 300.022C230.857 300.022 229.548 300.564 228.584 301.529C227.619 302.493 227.077 303.802 227.077 305.166V371.896C227.077 373.26 227.619 374.569 228.584 375.533C229.548 376.498 230.857 377.04 232.221 377.04C233.585 377.04 234.894 376.498 235.858 375.533C236.823 374.569 237.365 373.26 237.365 371.896ZM282.999 476.15V352.09C282.999 350.726 282.457 349.417 281.492 348.453C280.528 347.488 279.219 346.946 277.855 346.946C276.491 346.946 275.182 347.488 274.218 348.453C273.253 349.417 272.711 350.726 272.711 352.09V476.15C272.711 477.514 273.253 478.823 274.218 479.787C275.182 480.752 276.491 481.294 277.855 481.294C279.219 481.294 280.528 480.752 281.492 479.787C282.457 478.823 282.999 477.514 282.999 476.15ZM328.185 427.712V360.982C328.185 359.618 327.643 358.309 326.678 357.345C325.714 356.38 324.405 355.838 323.041 355.838C321.677 355.838 320.368 356.38 319.404 357.345C318.439 358.309 317.897 359.618 317.897 360.982V427.712C317.897 429.076 318.439 430.385 319.404 431.349C320.368 432.314 321.677 432.856 323.041 432.856C324.405 432.856 325.714 432.314 326.678 431.349C327.643 430.385 328.185 429.076 328.185 427.712ZM258.02 56.581V13.588C258.02 12.2237 257.478 10.9153 256.513 9.95064C255.549 8.98596 254.24 8.444 252.876 8.444C251.512 8.444 250.203 8.98596 249.239 9.95064C248.274 10.9153 247.732 12.2237 247.732 13.588V56.581C247.732 57.9453 248.274 59.2537 249.239 60.2184C250.203 61.183 251.512 61.725 252.876 61.725C254.24 61.725 255.549 61.183 256.513 60.2184C257.478 59.2537 258.02 57.9453 258.02 56.581ZM125.482 194.903V151.525C125.482 150.849 125.349 150.181 125.091 149.557C124.832 148.932 124.453 148.365 123.975 147.888L112.259 136.172C111.287 135.246 109.991 134.736 108.648 134.752C107.305 134.769 106.022 135.309 105.072 136.259C104.122 137.209 103.582 138.492 103.565 139.835C103.549 141.178 104.059 142.474 104.985 143.446L115.194 153.656V194.903C115.194 196.267 115.736 197.576 116.701 198.54C117.665 199.505 118.974 200.047 120.338 200.047C121.702 200.047 123.011 199.505 123.975 198.54C124.94 197.576 125.482 196.267 125.482 194.903ZM152.043 238.103V172.016C152.043 170.652 151.501 169.343 150.536 168.379C149.572 167.414 148.263 166.872 146.899 166.872C145.535 166.872 144.226 167.414 143.262 168.379C142.297 169.343 141.755 170.652 141.755 172.016V238.103C141.755 239.467 142.297 240.776 143.262 241.74C144.226 242.705 145.535 243.247 146.899 243.247C148.263 243.247 149.572 242.705 150.536 241.74C151.501 240.776 152.043 239.467 152.043 238.103ZM119.625 267.487V232.884C119.625 231.52 119.083 230.211 118.118 229.247C117.154 228.282 115.845 227.74 114.481 227.74C113.117 227.74 111.808 228.282 110.844 229.247C109.879 230.211 109.337 231.52 109.337 232.884V267.487C109.337 268.851 109.879 270.16 110.844 271.124C111.808 272.089 113.117 272.631 114.481 272.631C115.845 272.631 117.154 272.089 118.118 271.124C119.083 270.16 119.625 268.851 119.625 267.487ZM139.274 324.171V265.155C139.274 263.791 138.732 262.482 137.767 261.518C136.803 260.553 135.494 260.011 134.13 260.011C132.766 260.011 131.457 260.553 130.493 261.518C129.528 262.482 128.986 263.791 128.986 265.155V324.171C128.986 325.535 129.528 326.844 130.493 327.808C131.457 328.773 132.766 329.315 134.13 329.315C135.494 329.315 136.803 328.773 137.767 327.808C138.732 326.844 139.274 325.535 139.274 324.171ZM178.271 315.711V281.108C178.271 279.744 177.729 278.435 176.764 277.471C175.8 276.506 174.491 275.964 173.127 275.964C171.763 275.964 170.454 276.506 169.49 277.471C168.525 278.435 167.983 279.744 167.983 281.108V315.711C167.983 317.075 168.525 318.384 169.49 319.348C170.454 320.313 171.763 320.855 173.127 320.855C174.491 320.855 175.8 320.313 176.764 319.348C177.729 318.384 178.271 317.075 178.271 315.711ZM247.571 452.223V418.859C247.571 417.495 247.029 416.186 246.064 415.222C245.1 414.257 243.791 413.715 242.427 413.715C241.063 413.715 239.754 414.257 238.79 415.222C237.825 416.186 237.283 417.495 237.283 418.859V452.223C237.283 453.587 237.825 454.896 238.79 455.86C239.754 456.825 241.063 457.367 242.427 457.367C243.791 457.367 245.1 456.825 246.064 455.86C247.029 454.896 247.571 453.587 247.571 452.223ZM236.075 35.224C236.104 35.204 236.131 35.182 236.16 35.161L225.652 24.653C224.68 23.7266 223.384 23.2171 222.041 23.2334C220.698 23.2496 219.415 23.7903 218.465 24.7399C217.515 25.6896 216.975 26.9729 216.958 28.3158C216.942 29.6587 217.452 30.9547 218.378 31.927L227.078 40.627V93.861C227.078 95.2253 227.62 96.5337 228.585 97.4984C229.549 98.463 230.858 99.005 232.222 99.005C233.586 99.005 234.895 98.463 235.859 97.4984C236.824 96.5337 237.366 95.2253 237.366 93.861V38.598C237.361 37.3536 236.902 36.1539 236.075 35.224Z" fill="#2BA52E"/>
</svg>
